<svg width="180" height="180" viewBox="0 0 256 256" fill="none" xmlns="http://www.w3.org/2000/svg">
<rect width="256" height="256" fill="#938F91"/>
<path d="M102.843 56.3447C101.554 54.5143 101.204 52.7942 101.868 50.7302C102.814 47.7966 106.237 46.326 107.759 43.8613C108.843 46.1837 107.143 51.8329 105.919 54.0554C105.432 54.9382 104.635 55.8374 103.608 56.3555L102.843 56.3447Z" fill="white"/>
<path d="M105.955 57.0408C107.083 56.2905 112.125 51.1123 112.382 50.1562C113.461 52.9218 112.551 56.9744 110.941 59.5267C110.196 60.7036 109.108 61.8252 107.498 62.2285C107.196 62.3031 106.898 62.3515 106.587 62.3884C106.169 61.3166 105.754 60.3029 105.102 59.3086C105.15 59.269 105.198 59.2317 105.242 59.1892C105.983 58.4568 106.036 57.9515 105.955 57.0408Z" fill="white"/>
<path d="M90.9765 59.1552C87.4529 56.7384 82.3266 54.5462 78.3359 52.6393C81.6247 52.2572 84.9401 52.9467 88.0449 53.7968C90.6262 54.5034 95.1081 55.7774 96.3887 57.8645L95.7525 58.5279C94.335 59.1193 92.543 59.0699 90.9765 59.1552Z" fill="white"/>
<path d="M110.693 68.9187C110.673 68.8791 110.657 68.8399 110.637 68.8003C110.435 68.3479 110.226 67.8982 110.049 67.4393C108.321 62.9945 113.838 60.4863 115.976 57.0725C116.012 57.0123 116.049 56.9511 116.085 56.8906C116.556 56.9253 116.729 57.0273 117.092 57.2655C117.289 59.6398 116.564 64.4713 114.829 66.3632C114.567 66.9375 113.878 67.5502 113.331 67.9613C112.574 68.5288 111.744 68.9377 110.693 68.9187Z" fill="white"/>
<path d="M142.221 70.3555C139.625 70.378 137.605 69.7886 135.71 68.3118C133.016 66.2115 133.103 63.067 131.194 60.7866C134.219 61.1495 139.465 65.1068 141.258 67.0579C141.97 67.8336 142.549 68.8372 142.605 69.818L142.221 70.3555Z" fill="white"/>
<path d="M99.8803 61.2034C100.303 58.8023 92.6681 49.8586 91.7781 46.5213L92.4265 46.1445C92.6641 46.1907 92.8775 46.2456 93.0909 46.3401C95.4467 47.3764 100.347 55.4597 101.129 57.6967C101.608 58.3094 102.192 58.9125 102.349 59.6387C103.388 60.9094 105.53 63.3789 105.425 64.9087C107.894 67.0783 119.061 87.3344 120.067 90.777C121.706 93.4045 126.233 101.146 126.402 103.828C127.445 105.045 128.818 106.918 128.592 108.45C129.571 107.357 130.453 105.945 130.163 104.546C130.115 104.318 130.115 104.339 130.034 104.158C130.215 104.032 130.384 103.901 130.537 103.753C131.878 102.451 134.814 93.0614 134.669 91.3684C134.915 91.1597 135.168 90.9265 135.342 90.673C136.477 89.0202 139.864 80.3693 139.316 78.9475C139.687 78.6972 139.944 78.4594 140.174 78.1127C141.338 76.3657 145.634 64.5529 145.095 62.9933C144.676 63.4676 144.269 63.9487 143.871 64.4361C137.508 64.1172 137.081 54.2269 132.978 51.3711C136.453 52.7177 140.734 55.5536 142.908 58.1232C143.915 59.3135 144.084 61.1344 145.618 61.942C146.617 61.5626 147.898 56.5247 148.477 55.3528C149.146 54.012 149.746 52.706 151.461 52.1116C153.088 53.5816 148.453 60.0534 149.5 61.5881C153.455 58.9393 162.87 58.7899 167.678 57.281C166.333 59.0999 158.919 62.4032 156.257 63.4129C154.18 64.2016 152.251 63.5814 150.08 63.6203C149.867 63.6242 149.174 63.7188 149.045 63.8408C147.289 65.5053 145.139 73.7071 144.253 76.3105C141.901 83.2356 139.131 90.059 136.807 96.9904C135.096 102.097 133.892 107.391 131.927 112.429C131.677 113.066 131.307 113.53 130.747 114.016L142.187 113.99C144.193 116.602 140.186 121.362 139.828 124.194C139.232 128.9 139.042 130.377 142.163 136.777C146.894 140.189 148.84 138.39 159.982 142.643C168.124 145.75 172.792 147.879 173.673 163.74C174.881 185.491 174.479 184.51 170.775 194.013C165.664 201.644 156.6 207.277 146.408 209.748C149.557 210.359 153.527 211.959 156.237 213.402C156.358 213.594 156.398 213.645 156.487 213.832C157.196 215.397 156.829 216.986 155.992 218.453C136.292 218.251 116.568 218.401 96.8642 218.387C97.0172 218.185 97.146 218.009 97.2427 217.784C97.8306 216.41 97.6776 214.639 96.9407 213.331C99.7273 212.786 104.902 211.084 107.016 209.56C101.044 207.283 95.189 205.104 90.4372 201.272C82.7296 195.054 78.9197 186.955 78.8835 178.178C78.8275 164.675 82.3946 152.523 94.5439 143.787C97.3467 141.774 108.772 138.657 110.793 136.949C110.838 136.911 110.878 136.872 110.922 136.834C112.114 135.749 112.626 134.174 113.04 132.786C114.691 127.275 113.069 123.223 111.305 117.924C110.87 116.614 110.942 115.234 110.06 114.048C115.042 114.062 122.528 114.697 127.288 113.747C127.63 113.159 127.823 112.889 127.694 112.222C127.376 110.538 125.572 108.276 124.743 106.598C119.926 96.8903 115.513 86.6207 109.69 77.2911C109.328 76.7138 108.973 76.3481 108.317 75.9739C108.389 75.7855 108.446 75.6373 108.425 75.4368C108.208 73.4078 101.576 62.3542 99.8803 61.2034ZM124.646 152.403C116.999 154.824 112.07 160.756 108.86 166.674C105.486 172.901 103.497 180.967 106.629 187.517C108.405 191.228 111.707 194.153 116.222 195.74C119.632 196.939 124.4 197.624 128.085 197.216C133.94 196.978 139.481 195.404 143.476 191.796C147.543 188.122 148.989 183.199 148.639 178.353C148.075 170.578 143.601 160.745 136.292 155.471C133.674 153.58 130.203 152.072 126.615 152.248C125.955 152.283 125.298 152.335 124.646 152.403Z" fill="white"/>
<path d="M79.1641 59.209C84.0636 59.3372 93.5914 59.6506 97.4009 62.2941C98.4881 62.8008 99.8613 63.2875 100.477 64.2073C98.2385 64.8088 96.2089 65.3236 93.8169 65.1951C92.4638 63.3611 81.8633 59.8795 79.1641 59.209Z" fill="white"/>
<path d="M120.729 70.732C120.648 71.3675 120.185 71.9795 119.722 72.4832C118.522 73.7821 117.386 74.5534 115.393 74.8052C114.326 74.521 114.326 74.5298 113.794 73.7275C113.351 69.3615 118.132 67.1657 119.968 63.6158C120 63.555 120.032 63.4931 120.06 63.4316C120.548 63.4987 120.773 63.6891 121.124 63.9475C121.583 65.5754 121.711 67.7721 120.741 69.2967C122.195 68.8522 126.628 67.6933 127.365 66.764L126.894 65.3386L127.301 65.1613C130.341 65.8508 133.309 68.1457 135.367 70.0425C137.094 71.64 139.011 73.8612 138.834 76.0649C138.29 76.6831 138.161 76.6507 137.235 76.843C135.564 76.688 134.167 75.6609 132.838 74.8821C132.677 73.9728 128.706 69.3196 127.76 68.5238C125.432 69.297 123.089 70.0333 120.729 70.732Z" fill="white"/>
<path d="M150.16 70.5909C149.669 70.5264 149.294 70.4335 148.835 70.2661C148.239 70.0492 148.296 69.9605 148.078 69.4856C148.195 69.1935 148.352 68.9132 148.59 68.6718C151.638 65.5916 159.797 64.5688 164.262 64.0893C165.241 64.0291 166.236 64.0288 167.218 64.0039C164.399 65.7182 156.865 69.4683 153.623 70.3511C152.572 70.6366 151.255 70.5958 150.16 70.5909Z" fill="white"/>
<path d="M83.3047 66.4958C86.0591 66.368 88.8417 66.4644 91.6002 66.5011C94.6687 66.7902 102.34 67.7522 104.261 69.8508C104.386 69.9862 104.466 70.1337 104.535 70.2908C103.729 71.1127 101.881 71.5765 100.58 71.7185C99.2715 71.8611 97.8903 71.5932 96.6137 71.3809C95.8688 70.3074 85.2739 67.081 83.3047 66.4958Z" fill="white"/>
<path d="M147.769 77.0046C147.213 76.9297 146.666 76.701 146.146 76.5254L145.961 75.9271C146.07 75.7616 146.182 75.601 146.319 75.4486C149.162 72.2395 159.198 71.2069 163.659 70.6332C164.666 70.5553 165.576 70.523 166.583 70.6031C166.518 70.6577 166.462 70.7189 166.394 70.767C165.045 71.6822 153.507 76.4462 151.687 76.8639C150.487 77.14 149.013 77.0429 147.769 77.0046Z" fill="white"/>
<path d="M124.785 71.8086C127.459 73.3852 134.015 76.6701 134.937 79.2623C135.984 80.1939 136.681 81.4058 136.64 82.6955C136.624 83.2715 136.467 83.3343 136.012 83.7366C133.882 84.0127 131.707 81.4578 129.718 81.7296C129.545 82.7828 129.489 83.1446 129.96 84.1343C131.301 85.0247 133.306 85.5225 134.023 86.8309C134.087 89.0754 131.571 90.0105 133.052 92.3168L132.843 93.0606L132.992 93.6929C132.763 95.0353 131.027 96.1958 129.811 97.0469C128.615 97.8862 127.616 98.5361 125.973 98.4357L125.035 97.5352C123.887 94.2185 129.134 93.148 129.746 90.6582C129.758 90.6006 129.766 90.542 129.775 90.4841C128.579 91.1226 126.287 92.2468 124.918 92.4516C124.181 92.5622 123.803 92.2681 123.235 91.957C122.921 91.138 122.933 90.3056 122.901 89.4561C124.012 88.5582 125.756 86.9009 126.066 85.6556C124.974 85.2533 123.037 86.0184 121.793 86.1535C120.811 86.2601 120.513 86.2719 119.735 85.7776C119.723 85.6439 119.695 85.4591 119.719 85.3187C120.134 82.6935 123.69 80.3519 125.933 78.6651C126.046 78.4852 126.082 78.4593 126.114 78.2274C126.211 77.4833 125.752 76.1713 125.212 75.559C124.833 76.4811 124.097 77.3619 123.287 78.0688C121.97 79.2126 120.283 80.765 118.278 80.8134C118.088 80.6773 117.907 80.5377 117.754 80.3731C117.307 79.8864 117.162 79.1148 117.283 78.5238C117.851 75.753 122.095 73.2933 124.785 71.8086Z" fill="white"/>
<path d="M88.4542 72.4766C92.618 72.5237 103.632 72.9315 106.781 75.3648C107.026 75.5551 107.119 75.7053 107.268 75.9522L106.62 76.6617C105.186 77.3254 103.781 77.5985 102.194 77.8945C97.4544 76.733 92.6019 74.8735 88.2891 72.908L88.4542 72.4766Z" fill="white"/>
<path d="M146.948 83.5753C145.648 83.5368 144.456 83.5776 143.328 82.9905L143.372 82.369C147.17 78.9287 155.647 77.9474 161.031 77.1722C162.436 77.0738 163.986 76.8484 165.359 77.1725C158.997 78.9238 153.818 83.1786 146.948 83.5753Z" fill="white"/>
<path d="M104.64 83.7736C100.251 82.1947 95.8211 80.8448 91.4922 79.1348C92.8895 79.0125 94.3271 78.9484 95.7285 78.9454C99.8803 78.9366 107.842 79.4184 110.926 81.9269C110.479 82.5532 109.899 82.5313 109.074 82.7325C107.745 83.3785 106.142 83.5342 104.64 83.7736Z" fill="white"/>
<path d="M139.648 88.8959C147.666 85.1939 149.7 84.718 159.139 83.7138C160.778 83.5853 162.453 83.6105 164.1 83.584C160.762 85.6322 149.112 89.3682 144.924 89.4739C143.156 89.3362 141.404 89.1134 139.648 88.8959Z" fill="white"/>
<path d="M111.656 89.0433C111.149 89.249 110.637 89.4266 110.077 89.5251C107.343 90.0072 95.3308 86.4818 92.7656 85.0632L93.4663 84.6979C97.9604 84.4477 102.607 84.6812 106.989 85.5653C109.151 86.002 112.542 86.6032 113.734 88.2157C113.11 88.867 112.622 88.8385 111.656 89.0433Z" fill="white"/>
<path d="M144.659 95.6025C143.532 95.5498 141.941 95.6162 140.894 95.3029C140.185 95.0899 140.165 95.0265 139.867 94.5012C140.004 94.2977 140.149 94.1198 140.326 93.9382C143.56 90.6732 153.039 90.2742 157.703 89.9301L163.622 89.7148C162.172 91.0657 147.16 95.4527 144.659 95.6025Z" fill="white"/>
<path d="M115.289 94.4677C114.939 94.6757 114.464 94.8419 114.057 94.9697C108.927 96.5977 99.4069 92.2647 94.5625 90.5825C99.9385 89.5381 109.784 90.8016 114.677 92.7825C115.499 93.1132 116.095 93.3601 116.397 94.0742L115.289 94.4677Z" fill="white"/>
<path d="M116.514 101.644C110.751 99.6919 104.767 98.2194 99.1094 96.0426L99.3752 96.0272C104.908 95.7508 118.072 96.7265 122.18 99.7263L122.188 100.179L120.984 100.529C119.76 101.252 117.972 101.396 116.514 101.644Z" fill="white"/>
<path d="M139.284 102.174C138.462 102.114 137.745 102.143 137.117 101.654C137.254 101.023 137.48 100.568 137.995 100.086C141.809 96.5281 153.471 96.48 159.048 96.1447C160.147 96.0881 161.182 96.0901 162.282 96.1679L162.133 96.3743C160.304 96.949 158.387 97.3026 156.555 97.8799C151.071 99.6066 145.28 102.259 139.284 102.174Z" fill="white"/>
<path d="M117.385 107.942C115.11 107.092 112.408 106.644 110.016 105.986C105.598 104.771 101.241 103.272 96.7109 102.361C102.57 101.66 116.391 102.628 121.412 105.131C122.181 105.516 122.379 105.623 122.592 106.335L121.32 106.837C120.277 107.598 118.718 107.72 117.385 107.942Z" fill="white"/>
<path d="M141.88 108.089C141.087 108.485 139.335 108.473 138.393 108.538C137.193 108.621 136.621 108.521 135.703 107.888C135.735 107.364 135.679 107.177 136.074 106.74C139.38 103.068 148.92 102.92 153.985 102.359C156.812 102.133 159.68 102.216 162.518 102.238C160.167 103.728 145.396 107.586 141.88 108.089Z" fill="white"/>
</svg>
